<mxfile host="app.diagrams.net" agent="Mozilla/5.0 (Windows NT 10.0; Win64; x64) AppleWebKit/537.36 (KHTML, like Gecko) Chrome/129.0.0.0 Safari/537.36" version="24.7.17">
  <diagram name="Page-1" id="1bzDWKbDaLEXbmAgvMcE">
    <mxGraphModel dx="712" dy="823" grid="1" gridSize="10" guides="1" tooltips="1" connect="1" arrows="1" fold="1" page="1" pageScale="1" pageWidth="827" pageHeight="1169" math="0" shadow="0">
      <root>
        <mxCell id="0" />
        <mxCell id="1" parent="0" />
        <mxCell id="6PH1xT20IT_zQkKojiib-4" value="" style="edgeStyle=orthogonalEdgeStyle;rounded=0;orthogonalLoop=1;jettySize=auto;html=1;" edge="1" parent="1" source="6PH1xT20IT_zQkKojiib-1" target="6PH1xT20IT_zQkKojiib-3">
          <mxGeometry relative="1" as="geometry" />
        </mxCell>
        <mxCell id="6PH1xT20IT_zQkKojiib-1" value="Start" style="ellipse;whiteSpace=wrap;html=1;" vertex="1" parent="1">
          <mxGeometry x="354" y="40" width="120" height="60" as="geometry" />
        </mxCell>
        <mxCell id="6PH1xT20IT_zQkKojiib-6" value="" style="edgeStyle=orthogonalEdgeStyle;rounded=0;orthogonalLoop=1;jettySize=auto;html=1;" edge="1" parent="1" source="6PH1xT20IT_zQkKojiib-3" target="6PH1xT20IT_zQkKojiib-5">
          <mxGeometry relative="1" as="geometry" />
        </mxCell>
        <mxCell id="6PH1xT20IT_zQkKojiib-3" value="init:&lt;div&gt;N,M&lt;/div&gt;&lt;div&gt;total_cells&lt;/div&gt;" style="shape=parallelogram;perimeter=parallelogramPerimeter;whiteSpace=wrap;html=1;fixedSize=1;" vertex="1" parent="1">
          <mxGeometry x="354" y="120" width="120" height="60" as="geometry" />
        </mxCell>
        <mxCell id="6PH1xT20IT_zQkKojiib-8" value="" style="edgeStyle=orthogonalEdgeStyle;rounded=0;orthogonalLoop=1;jettySize=auto;html=1;" edge="1" parent="1" source="6PH1xT20IT_zQkKojiib-5" target="6PH1xT20IT_zQkKojiib-7">
          <mxGeometry relative="1" as="geometry" />
        </mxCell>
        <mxCell id="6PH1xT20IT_zQkKojiib-11" value="True" style="edgeLabel;html=1;align=center;verticalAlign=middle;resizable=0;points=[];" vertex="1" connectable="0" parent="6PH1xT20IT_zQkKojiib-8">
          <mxGeometry x="0.1525" y="2" relative="1" as="geometry">
            <mxPoint as="offset" />
          </mxGeometry>
        </mxCell>
        <mxCell id="6PH1xT20IT_zQkKojiib-10" value="False" style="edgeStyle=orthogonalEdgeStyle;rounded=0;orthogonalLoop=1;jettySize=auto;html=1;" edge="1" parent="1" source="6PH1xT20IT_zQkKojiib-5" target="6PH1xT20IT_zQkKojiib-9">
          <mxGeometry relative="1" as="geometry" />
        </mxCell>
        <mxCell id="6PH1xT20IT_zQkKojiib-5" value="if&lt;div&gt;(total_cells % 2 == 1)&lt;/div&gt;" style="rhombus;whiteSpace=wrap;html=1;" vertex="1" parent="1">
          <mxGeometry x="321" y="200" width="186" height="80" as="geometry" />
        </mxCell>
        <mxCell id="6PH1xT20IT_zQkKojiib-16" style="edgeStyle=orthogonalEdgeStyle;rounded=0;orthogonalLoop=1;jettySize=auto;html=1;" edge="1" parent="1" source="6PH1xT20IT_zQkKojiib-7" target="6PH1xT20IT_zQkKojiib-13">
          <mxGeometry relative="1" as="geometry">
            <Array as="points">
              <mxPoint x="200" y="390" />
            </Array>
          </mxGeometry>
        </mxCell>
        <mxCell id="6PH1xT20IT_zQkKojiib-7" value="cout:&lt;div&gt;Imp&lt;/div&gt;" style="shape=parallelogram;perimeter=parallelogramPerimeter;whiteSpace=wrap;html=1;fixedSize=1;" vertex="1" parent="1">
          <mxGeometry x="150" y="210" width="120" height="60" as="geometry" />
        </mxCell>
        <mxCell id="6PH1xT20IT_zQkKojiib-14" style="edgeStyle=orthogonalEdgeStyle;rounded=0;orthogonalLoop=1;jettySize=auto;html=1;" edge="1" parent="1" source="6PH1xT20IT_zQkKojiib-9" target="6PH1xT20IT_zQkKojiib-13">
          <mxGeometry relative="1" as="geometry">
            <Array as="points">
              <mxPoint x="620" y="390" />
            </Array>
          </mxGeometry>
        </mxCell>
        <mxCell id="6PH1xT20IT_zQkKojiib-9" value="cout:&lt;div&gt;Dragon&lt;/div&gt;" style="shape=parallelogram;perimeter=parallelogramPerimeter;whiteSpace=wrap;html=1;fixedSize=1;" vertex="1" parent="1">
          <mxGeometry x="560" y="210" width="120" height="60" as="geometry" />
        </mxCell>
        <mxCell id="6PH1xT20IT_zQkKojiib-13" value="End" style="ellipse;whiteSpace=wrap;html=1;" vertex="1" parent="1">
          <mxGeometry x="354" y="360" width="120" height="60" as="geometry" />
        </mxCell>
      </root>
    </mxGraphModel>
  </diagram>
</mxfile>
